<?xml version="1.0" encoding="UTF-8"?><svg id="_圖層_1" xmlns="http://www.w3.org/2000/svg" viewBox="0 0 175.82 209.5"><path d="M162.02,19h-92.21c-7.62,0-13.81,6.18-13.81,13.81v41.15l5.89,6.72h18.04v21.89h0v90.38l4.45,6.56h15.18s56.49,0,56.49,0c3.14,0,5.69-2.55,5.69-5.69v-79.41c0-3.19,1.24-6.29,3.53-8.51.01-.01.03-.03.04-.04l3.5-3.36c4.48-4.3,7.01-10.24,7.01-16.45v-53.24c0-7.62-6.18-13.81-13.81-13.81Z" style="fill:#4d4d4d;"/><path d="M143.06,1.49h-54.31c-1.75,0-3.17,1.42-3.17,3.17v27.85h19.54s41.11,0,41.11,0V4.66c0-1.75-1.42-3.17-3.17-3.17Z" style="fill:#ccc;"/><path d="M128.72,85.52h-24.65l-4.62,3.06v6.67c0,3.27,2.65,5.92,5.92,5.92h21.07c3.27,0,5.92-2.65,5.92-5.92v-6.67l-3.65-3.06Z" style="fill:#b3b3b3;"/><path d="M152.52,35.68h-73.21c-1.75,0-3.17-1.42-3.17-3.17s1.42-3.17,3.17-3.17h73.21c1.75,0,3.17,1.42,3.17,3.17s-1.42,3.17-3.17,3.17Z" style="fill:#666;"/><path d="M132.48,20.17h-33.14c-1.75,0-3.17-1.42-3.17-3.17s1.42-3.17,3.17-3.17h33.14c1.75,0,3.17,1.42,3.17,3.17s-1.42,3.17-3.17,3.17Z" style="fill:#e6e6e6;"/><path d="M156.05,44.4h-80.28c-3.14,0-5.69,2.55-5.69,5.69v23.87l1.82,2.47h6.56l3.07,8.89,2.85,3.27h5.34s66.32,0,66.32,0c3.14,0,5.69-2.55,5.69-5.69v-32.81c0-3.14-2.55-5.69-5.69-5.69Z" style="fill:#fff;"/><path d="M94.33,116.74s.03,0,.04,0c-.14-.02-.28-.03-.42-.03,0,0,0,0-.01,0h-.23s-5.93,0-5.93,0c-1.87,0-3.39,1.52-3.39,3.39v5.64c0,1.87,1.52,3.39,3.39,3.39h6.16c.15,0,.29-.01.44-.03-.01,0-.03,0-.04,0,1.68-.2,2.99-1.61,2.99-3.35v-5.64c0-1.73-1.31-3.15-2.99-3.35Z" style="fill:#b3b3b3;"/><path d="M94.33,141.56s.03,0,.04,0c-.14-.02-.28-.03-.42-.03,0,0,0,0-.01,0h-.23s-5.93,0-5.93,0c-1.87,0-3.39,1.52-3.39,3.39v5.64c0,1.87,1.52,3.39,3.39,3.39h6.16c.15,0,.29-.01.44-.03-.01,0-.03,0-.04,0,1.68-.2,2.99-1.61,2.99-3.35v-5.64c0-1.73-1.31-3.15-2.99-3.34Z" style="fill:#b3b3b3;"/><path d="M94.33,166.39s.03,0,.04,0c-.14-.02-.28-.03-.42-.03,0,0,0,0-.01,0h-.23s-5.93,0-5.93,0c-1.87,0-3.39,1.52-3.39,3.39v5.64c0,1.87,1.52,3.39,3.39,3.39h6.16c.15,0,.29-.01.44-.03-.01,0-.03,0-.04,0,1.68-.2,2.99-1.61,2.99-3.35v-5.64c0-1.73-1.31-3.15-2.99-3.35Z" style="fill:#b3b3b3;"/><path d="M119.39,116.74s.03,0,.04,0c-.14-.02-.28-.03-.42-.03,0,0,0,0-.01,0h-.23s-5.93,0-5.93,0c-1.87,0-3.39,1.52-3.39,3.39v5.64c0,1.87,1.52,3.39,3.39,3.39h6.16c.15,0,.29-.01.44-.03-.01,0-.03,0-.04,0,1.68-.2,2.99-1.61,2.99-3.35v-5.64c0-1.73-1.31-3.15-2.99-3.35Z" style="fill:#b3b3b3;"/><path d="M119.39,141.56s.03,0,.04,0c-.14-.02-.28-.03-.42-.03,0,0,0,0-.01,0h-.23s-5.93,0-5.93,0c-1.87,0-3.39,1.52-3.39,3.39v5.64c0,1.87,1.52,3.39,3.39,3.39h6.16c.15,0,.29-.01.44-.03-.01,0-.03,0-.04,0,1.68-.2,2.99-1.61,2.99-3.35v-5.64c0-1.73-1.31-3.15-2.99-3.34Z" style="fill:#b3b3b3;"/><path d="M119.39,166.39s.03,0,.04,0c-.14-.02-.28-.03-.42-.03,0,0,0,0-.01,0h-.23s-5.93,0-5.93,0c-1.87,0-3.39,1.52-3.39,3.39v5.64c0,1.87,1.52,3.39,3.39,3.39h6.16c.15,0,.29-.01.44-.03-.01,0-.03,0-.04,0,1.68-.2,2.99-1.61,2.99-3.35v-5.64c0-1.73-1.31-3.15-2.99-3.35Z" style="fill:#b3b3b3;"/><path d="M144.45,116.74s.03,0,.04,0c-.14-.02-.28-.03-.42-.03,0,0,0,0-.01,0h-.23s-5.93,0-5.93,0c-1.87,0-3.39,1.52-3.39,3.39v5.64c0,1.87,1.52,3.39,3.39,3.39h6.16c.15,0,.29-.01.44-.03-.01,0-.03,0-.04,0,1.68-.2,2.99-1.61,2.99-3.35v-5.64c0-1.73-1.31-3.15-2.99-3.35Z" style="fill:#b3b3b3;"/><path d="M144.45,141.56s.03,0,.04,0c-.14-.02-.28-.03-.42-.03,0,0,0,0-.01,0h-.23s-5.93,0-5.93,0c-1.87,0-3.39,1.52-3.39,3.39v5.64c0,1.87,1.52,3.39,3.39,3.39h6.16c.15,0,.29-.01.44-.03-.01,0-.03,0-.04,0,1.68-.2,2.99-1.61,2.99-3.35v-5.64c0-1.73-1.31-3.15-2.99-3.34Z" style="fill:#b3b3b3;"/><path d="M144.45,166.39s.03,0,.04,0c-.14-.02-.28-.03-.42-.03,0,0,0,0-.01,0h-.23s-5.93,0-5.93,0c-1.87,0-3.39,1.52-3.39,3.39v5.64c0,1.87,1.52,3.39,3.39,3.39h6.16c.15,0,.29-.01.44-.03-.01,0-.03,0-.04,0,1.68-.2,2.99-1.61,2.99-3.35v-5.64c0-1.73-1.31-3.15-2.99-3.35Z" style="fill:#b3b3b3;"/><path d="M10.65,72.71C4.88,72.71.06,77.44.06,83.21v113.29c0,5.77,4.82,10.53,10.59,10.53h5.37V72.71h-5.37Z" style="fill:#17cee1;"/><path d="M78.24,207.03c5.77,0,10.59-4.73,10.59-10.5v-113.29c0-5.77-4.82-10.53-10.59-10.53H26.35v134.32h51.89Z" style="fill:#17cee1;"/><path d="M69.05,156.67c6.43,0,11.66,5.23,11.66,11.66,0,6.43-5.23,11.66-11.66,11.66-6.43,0-11.66-5.23-11.66-11.66,0-6.43,5.23-11.66,11.66-11.66ZM69.05,163.67c-2.57,0-4.67,2.09-4.67,4.67s2.09,4.67,4.67,4.67,4.67-2.09,4.67-4.67-2.09-4.67-4.67-4.67Z" style="fill:#fff;"/><path d="M37.56,147.34h2.33c7.08,0,12.83,5.75,12.83,12.83v16.33c0,7.08-5.75,12.83-12.83,12.83h-2.33c-1.93,0-3.5-1.57-3.5-3.5s1.57-3.5,3.5-3.5h2.33c3.21,0,5.83-2.62,5.83-5.83v-16.33c0-3.21-2.62-5.83-5.83-5.83h-2.33c-1.93,0-3.5-1.57-3.5-3.5s1.57-3.5,3.5-3.5Z" style="fill:#fff;"/><path d="M65.63,91.26c2.55,0,4.62,2.07,4.62,4.62v33.86c0,2.55-2.07,4.62-4.62,4.62s-4.62-2.07-4.62-4.62v-33.86c0-2.55,2.07-4.62,4.62-4.62Z" style="fill:#fff;"/><path d="M47.94,91.26c2.55,0,4.62,2.07,4.62,4.62v33.86c0,2.55-2.07,4.62-4.62,4.62s-4.62-2.07-4.62-4.62v-33.86c0-2.55,2.07-4.62,4.62-4.62Z" style="fill:#fff;"/></svg>