<?xml version="1.0" encoding="UTF-8"?>
<svg xmlns="http://www.w3.org/2000/svg" version="1.1" viewBox="0 0 100 100">
  <defs>
    <style>
      .cls-1 {
        fill: #fff;
      }

      .cls-2 {
        fill: #17cee1;
      }
    </style>
  </defs>
  <!-- Generator: Adobe Illustrator 28.7.1, SVG Export Plug-In . SVG Version: 1.2.0 Build 142)  -->
  <g>
    <g id="_圖層_1" data-name="圖層_1">
      <path class="cls-2" d="M2.2,74.1c0,4.1,3.4,7.5,7.5,7.5h80.6c4.1,0,7.5-3.4,7.5-7.5v-3.8H2.2v3.8Z"/>
      <path class="cls-2" d="M97.8,25.9c0-4.1-3.4-7.5-7.5-7.5H9.7c-4.1,0-7.5,3.4-7.5,7.5v36.9h95.6V25.9Z"/>
      <path class="cls-1" d="M62,32.5c0-4.6,3.7-8.3,8.3-8.3s8.3,3.7,8.3,8.3-3.7,8.3-8.3,8.3-8.3-3.7-8.3-8.3ZM66.9,32.5c0,1.8,1.5,3.3,3.3,3.3s3.3-1.5,3.3-3.3-1.5-3.3-3.3-3.3-3.3,1.5-3.3,3.3Z"/>
      <path class="cls-1" d="M55.3,54.9v-1.7c0-5,4.1-9.1,9.1-9.1h11.6c5,0,9.1,4.1,9.1,9.1v1.7c0,1.4-1.1,2.5-2.5,2.5s-2.5-1.1-2.5-2.5v-1.7c0-2.3-1.9-4.2-4.2-4.2h-11.6c-2.3,0-4.2,1.9-4.2,4.2v1.7c0,1.4-1.1,2.5-2.5,2.5s-2.5-1.1-2.5-2.5Z"/>
      <path class="cls-1" d="M15.4,34.9c0-1.8,1.5-3.3,3.3-3.3h24.1c1.8,0,3.3,1.5,3.3,3.3s-1.5,3.3-3.3,3.3h-24.1c-1.8,0-3.3-1.5-3.3-3.3Z"/>
      <path class="cls-1" d="M15.4,47.5c0-1.8,1.5-3.3,3.3-3.3h24.1c1.8,0,3.3,1.5,3.3,3.3s-1.5,3.3-3.3,3.3h-24.1c-1.8,0-3.3-1.5-3.3-3.3Z"/>
    </g>
  </g>
</svg>