<?xml version="1.0" encoding="UTF-8"?>
<svg xmlns="http://www.w3.org/2000/svg" version="1.1" viewBox="0 0 100 100">
  <defs>
    <style>
      .cls-1 {
        fill: #fff;
      }

      .cls-2 {
        fill: #17cee1;
      }
    </style>
  </defs>
  <!-- Generator: Adobe Illustrator 28.7.1, SVG Export Plug-In . SVG Version: 1.2.0 Build 142)  -->
  <g>
    <g id="_圖層_1" data-name="圖層_1">
      <path class="cls-2" d="M26.5,9C12.3,9,.8,20.5.8,34.7v29.8c0,14.2,11.5,25.7,25.7,25.7s25.7-11.5,25.7-25.7v-29.8c0-14.2-11.5-25.7-25.7-25.7Z"/>
      <path class="cls-2" d="M78.9,90.1c-.8,0-1.7-.4-2.3-1.1-1-1.2-.8-3.1.4-4.1,10.7-8.7,16.9-21.6,16.9-35.4s-6.1-26.5-16.7-35.2c-1.2-1-1.4-2.8-.4-4.1,1-1.2,2.8-1.4,4.1-.4,12,9.8,18.8,24.3,18.8,39.7s-6.9,30.1-19,39.9c-.5.4-1.2.6-1.8.6h0Z"/>
      <path class="cls-2" d="M69.9,79c-.8,0-1.7-.4-2.3-1.1-1-1.2-.8-3.1.4-4.1,7.4-6,11.6-14.8,11.6-24.3s-4.2-18.2-11.5-24.2c-1.2-1-1.4-2.8-.4-4.1,1-1.2,2.8-1.4,4.1-.4,8.6,7.1,13.6,17.5,13.6,28.7s-5,21.7-13.7,28.8c-.5.4-1.2.6-1.8.6h0Z"/>
      <path class="cls-2" d="M60.9,67.9c-.8,0-1.7-.4-2.3-1.1-1-1.2-.8-3.1.4-4.1,4-3.2,6.3-8.1,6.3-13.2s-2.3-9.9-6.2-13.1c-1.2-1-1.4-2.8-.4-4.1s2.8-1.4,4.1-.4c5.3,4.4,8.3,10.8,8.3,17.6s-3.1,13.4-8.4,17.7c-.5.4-1.2.6-1.8.6Z"/>
      <path class="cls-1" d="M30,49.6l10.5-9.5c.6-.5.9-1.3.9-2.1s-.3-1.6-.9-2.1l-12.8-11.7c-.8-.8-2.1-1-3.1-.5-1,.5-1.7,1.5-1.7,2.7v16.2l-5.3-5.4c-1.1-1.1-3-1.2-4.1,0s-1.2,3,0,4.1l8.2,8.4-8.2,8.4c-1.1,1.1-1.1,3,0,4.1.6.6,1.3.8,2,.8s1.5-.3,2.1-.9l5.3-5.4v16.2c0,1.1.7,2.2,1.7,2.7.4.2.8.2,1.2.2.7,0,1.4-.3,2-.8l12.8-11.7c.6-.5.9-1.3.9-2.1s-.3-1.6-.9-2.1l-10.5-9.5ZM28.6,32.9l5.6,5.1-5.6,5.1v-10.2ZM28.6,66.4v-10.2l5.6,5.1-5.6,5.1Z"/>
    </g>
  </g>
</svg>