<?xml version="1.0" encoding="UTF-8"?>
<svg xmlns="http://www.w3.org/2000/svg" version="1.1" viewBox="0 0 100 100">
  <defs>
    <style>
      .cls-1 {
        fill: #effafb;
      }

      .cls-2 {
        fill: #17cee1;
      }

      .cls-3 {
        fill: #ffe5c2;
      }
    </style>
  </defs>
  <!-- Generator: Adobe Illustrator 28.7.1, SVG Export Plug-In . SVG Version: 1.2.0 Build 142)  -->
  <g>
    <g id="_圖層_1" data-name="圖層_1">
      <path class="cls-3" d="M81.4,54.7l-7.9-9.5-9.1,15.6.9,39.2h12.7c2.7,0,5.1-1.9,5.6-4.6l3.5-18c1.6-8-.6-16.4-5.8-22.7h0Z"/>
      <circle class="cls-2" cx="43.7" cy="32.3" r="31.3"/>
      <path class="cls-1" d="M80.2,72.3h-35.4c-2.5,0-4.4-1.9-4.4-4.3v-20.5c0-2.4,1.9-4.3,4.3-4.3h35.4c2.4,0,4.3,1.9,4.3,4.3v20.5c0,2.4-1.9,4.3-4.1,4.3h0Z"/>
      <path class="cls-3" d="M62.6,53c-3.3,0-5.9,2.6-5.9,5.9v17.3c0,1.2-.4,2.3-1.2,3.2-4.5,5.2-4.7,12.9-.5,18.4,1.1,1.4,2.8,2.3,4.6,2.3h9v-41.1c0-3.3-2.7-5.9-5.9-5.9h0Z"/>
      <path class="cls-1" d="M62.3,32.6c.5,0,.9-.2,1.3-.5.6-.7.6-1.8,0-2.4-5.4-5-12.4-7.8-19.8-7.8s-14.4,2.8-19.8,7.8c-.7.6-.7,1.7,0,2.4.6.7,1.7.7,2.4,0,4.7-4.4,10.9-6.9,17.4-6.9s12.7,2.4,17.4,6.9c.3.3.8.5,1.2.5h0Z"/>
      <path class="cls-1" d="M67.1,27.5c.5,0,.9-.2,1.3-.5.6-.7.6-1.8,0-2.4-6.7-6.2-15.4-9.7-24.6-9.7s-17.9,3.4-24.6,9.7c-.7.6-.7,1.7,0,2.4.6.7,1.7.7,2.4,0,6.1-5.6,14-8.7,22.2-8.7s16.2,3.1,22.2,8.7c.3.3.8.5,1.2.5h0Z"/>
      <path class="cls-1" d="M29.2,35.3c-.7.6-.7,1.7,0,2.4.6.7,1.7.7,2.4,0,3.3-3.1,7.7-4.8,12.2-4.8s8.9,1.7,12.2,4.8c.3.3.8.5,1.2.5s.9-.2,1.3-.5c.6-.7.6-1.8,0-2.4-4-3.7-9.1-5.7-14.5-5.7s-10.6,2-14.5,5.7h0Z"/>
    </g>
  </g>
</svg>