<?xml version="1.0" encoding="UTF-8"?>
<svg xmlns="http://www.w3.org/2000/svg" version="1.1" viewBox="0 0 100 100">
  <defs>
    <style>
      .cls-1 {
        fill: #17cee1;
      }
    </style>
  </defs>
  <!-- Generator: Adobe Illustrator 28.7.1, SVG Export Plug-In . SVG Version: 1.2.0 Build 142)  -->
  <g>
    <g id="_圖層_1" data-name="圖層_1">
      <path class="cls-1" d="M59.7,44c0-5.2,4.2-9.4,9.4-9.4s9.4,4.2,9.4,9.4-4.2,9.4-9.4,9.4-9.4-4.2-9.4-9.4ZM65.3,44c0,2.1,1.7,3.8,3.8,3.8s3.8-1.7,3.8-3.8c0-2.1-1.7-3.8-3.8-3.8s-3.8,1.7-3.8,3.8Z"/>
      <path class="cls-1" d="M52.2,69.3v-1.9c0-5.7,4.6-10.3,10.3-10.3h13.1c5.7,0,10.3,4.6,10.3,10.3v1.9c0,1.6-1.3,2.8-2.8,2.8s-2.8-1.3-2.8-2.8v-1.9c0-2.6-2.1-4.7-4.7-4.7h-13.1c-2.6,0-4.7,2.1-4.7,4.7v1.9c0,1.6-1.3,2.8-2.8,2.8s-2.8-1.3-2.8-2.8Z"/>
      <path class="cls-1" d="M18.4,39.3c0-1.6,1.3-2.8,2.8-2.8h20.7c1.6,0,2.8,1.3,2.8,2.8s-1.3,2.8-2.8,2.8h-20.7c-1.6,0-2.8-1.3-2.8-2.8Z"/>
      <path class="cls-1" d="M18.4,54.3c0-1.6,1.3-2.8,2.8-2.8h20.7c1.6,0,2.8,1.3,2.8,2.8s-1.3,2.8-2.8,2.8h-20.7c-1.6,0-2.8-1.3-2.8-2.8Z"/>
      <path class="cls-1" d="M18.4,69.3c0-1.6,1.3-2.8,2.8-2.8h20.7c1.6,0,2.8,1.3,2.8,2.8s-1.3,2.8-2.8,2.8h-20.7c-1.6,0-2.8-1.3-2.8-2.8Z"/>
      <path class="cls-1" d="M87.7,28.3c3.4,0,6.2,3.3,6.2,7.3v36.3c0,4-2.8,7.3-6.2,7.3H13.7c-3.4,0-6.2-3.3-6.2-7.3v-36.3c0-4,2.8-7.3,6.2-7.3h74ZM13.7,21c-6.8,0-12.3,6.5-12.3,14.5v36.3c0,8,5.5,14.5,12.3,14.5h74c6.8,0,12.3-6.5,12.3-14.5v-36.3c0-8-5.5-14.5-12.3-14.5H13.7Z"/>
    </g>
  </g>
</svg>