<?xml version="1.0" encoding="UTF-8"?>
<svg xmlns="http://www.w3.org/2000/svg" version="1.1" viewBox="0 0 100 100">
  <defs>
    <style>
      .cls-1 {
        fill: #17cee1;
      }
    </style>
  </defs>
  <!-- Generator: Adobe Illustrator 28.7.1, SVG Export Plug-In . SVG Version: 1.2.0 Build 142)  -->
  <g>
    <g id="_圖層_1" data-name="圖層_1">
      <path class="cls-1" d="M86.9,32.1c3.4,0,6.1,2.8,6.1,6.1v30.7c0,3.4-2.8,6.1-6.1,6.1H13.2c-3.4,0-6.1-2.8-6.1-6.1v-30.7c0-3.4,2.8-6.1,6.1-6.1h73.7ZM13.2,26c-6.8,0-12.3,5.5-12.3,12.3v30.7c0,6.8,5.5,12.3,12.3,12.3h73.7c6.8,0,12.3-5.5,12.3-12.3v-30.7c0-6.8-5.5-12.3-12.3-12.3H13.2Z"/>
      <path class="cls-1" d="M80.8,64.4c0-.8.7-1.5,1.5-1.5h3.1c.8,0,1.5.7,1.5,1.5v3.1c0,.8-.7,1.5-1.5,1.5h-3.1c-.8,0-1.5-.7-1.5-1.5v-3.1ZM80.8,52.1c0-.8.7-1.5,1.5-1.5h3.1c.8,0,1.5.7,1.5,1.5v3.1c0,.8-.7,1.5-1.5,1.5h-3.1c-.8,0-1.5-.7-1.5-1.5v-3.1ZM50.1,52.1c0-.8.7-1.5,1.5-1.5h3.1c.8,0,1.5.7,1.5,1.5v3.1c0,.8-.7,1.5-1.5,1.5h-3.1c-.8,0-1.5-.7-1.5-1.5v-3.1ZM62.4,52.1c0-.8.7-1.5,1.5-1.5h9.2c.8,0,1.5.7,1.5,1.5v3.1c0,.8-.7,1.5-1.5,1.5h-9.2c-.8,0-1.5-.7-1.5-1.5v-3.1ZM68.5,64.4c0-.8.7-1.5,1.5-1.5h3.1c.8,0,1.5.7,1.5,1.5v3.1c0,.8-.7,1.5-1.5,1.5h-3.1c-.8,0-1.5-.7-1.5-1.5v-3.1ZM37.8,52.1c0-.8.7-1.5,1.5-1.5h3.1c.8,0,1.5.7,1.5,1.5v3.1c0,.8-.7,1.5-1.5,1.5h-3.1c-.8,0-1.5-.7-1.5-1.5v-3.1ZM25.5,52.1c0-.8.7-1.5,1.5-1.5h3.1c.8,0,1.5.7,1.5,1.5v3.1c0,.8-.7,1.5-1.5,1.5h-3.1c-.8,0-1.5-.7-1.5-1.5v-3.1ZM13.2,52.1c0-.8.7-1.5,1.5-1.5h3.1c.8,0,1.5.7,1.5,1.5v3.1c0,.8-.7,1.5-1.5,1.5h-3.1c-.8,0-1.5-.7-1.5-1.5v-3.1ZM80.8,39.8c0-.8.7-1.5,1.5-1.5h3.1c.8,0,1.5.7,1.5,1.5v3.1c0,.8-.7,1.5-1.5,1.5h-3.1c-.8,0-1.5-.7-1.5-1.5v-3.1ZM68.5,39.8c0-.8.7-1.5,1.5-1.5h3.1c.8,0,1.5.7,1.5,1.5v3.1c0,.8-.7,1.5-1.5,1.5h-3.1c-.8,0-1.5-.7-1.5-1.5v-3.1ZM56.2,39.8c0-.8.7-1.5,1.5-1.5h3.1c.8,0,1.5.7,1.5,1.5v3.1c0,.8-.7,1.5-1.5,1.5h-3.1c-.8,0-1.5-.7-1.5-1.5v-3.1ZM43.9,39.8c0-.8.7-1.5,1.5-1.5h3.1c.8,0,1.5.7,1.5,1.5v3.1c0,.8-.7,1.5-1.5,1.5h-3.1c-.8,0-1.5-.7-1.5-1.5v-3.1ZM31.6,39.8c0-.8.7-1.5,1.5-1.5h3.1c.8,0,1.5.7,1.5,1.5v3.1c0,.8-.7,1.5-1.5,1.5h-3.1c-.8,0-1.5-.7-1.5-1.5v-3.1ZM13.2,39.8c0-.8.7-1.5,1.5-1.5h9.2c.8,0,1.5.7,1.5,1.5v3.1c0,.8-.7,1.5-1.5,1.5h-9.2c-.8,0-1.5-.7-1.5-1.5v-3.1ZM13.2,64.4c0-.8.7-1.5,1.5-1.5h3.1c.8,0,1.5.7,1.5,1.5v3.1c0,.8-.7,1.5-1.5,1.5h-3.1c-.8,0-1.5-.7-1.5-1.5v-3.1ZM25.5,64.4c0-.8.7-1.5,1.5-1.5h33.8c.8,0,1.5.7,1.5,1.5v3.1c0,.8-.7,1.5-1.5,1.5H27c-.8,0-1.5-.7-1.5-1.5v-3.1Z"/>
    </g>
  </g>
</svg>