<?xml version="1.0" encoding="UTF-8"?><svg id="_圖層_1" xmlns="http://www.w3.org/2000/svg" viewBox="0 0 161.21 105.41"><path d="M142.61,0H18.6C8.33.01.01,8.33,0,18.6v68.21c.01,10.27,8.33,18.59,18.6,18.6h124.01c10.27-.01,18.59-8.33,18.6-18.6V18.6c-.01-10.27-8.33-18.59-18.6-18.6ZM18.6,12.4h124.01c3.42,0,6.2,2.78,6.2,6.2v12.4H12.4v-12.4c0-3.42,2.78-6.2,6.2-6.2ZM142.61,93.01H18.6c-3.42,0-6.2-2.78-6.2-6.2v-43.4h136.41v43.4c0,3.42-2.78,6.2-6.2,6.2Z" style="fill:#17cee1;"/><path d="M130.21,68.21h-18.6c-3.42,0-6.2,2.78-6.2,6.2s2.78,6.2,6.2,6.2h18.6c3.42,0,6.2-2.78,6.2-6.2s-2.78-6.2-6.2-6.2Z" style="fill:#17cee1;"/></svg>